<svg width="32" height="32" viewBox="0 0 32 32" fill="none" xmlns="http://www.w3.org/2000/svg">
  <rect width="32" height="32" rx="6" fill="#10B981"/>
  <path d="M8 6C8 5.44772 8.44772 5 9 5C9.55228 5 10 5.44772 10 6C10 6.55228 9.55228 7 9 7C8.44772 7 8 6.55228 8 6Z" fill="white"/>
  <path d="M6 10C6 9.44772 6.44772 9 6 9C5.55228 9 5 9.44772 5 10C5 10.5523 5.55228 11 6 11 6Z" fill="white"/>
  <path d="M16 10V12C16 10.4477 15.5523 10 15 10C14.4477 10 14 10.4477 14 10V8C14 6.68629 14.6863 6 15.5 6C16.3137 6 17 6.68629 17 8H16V10Z" fill="white"/>
</svg>
