<svg width="40" height="40" viewBox="0 0 40 40" fill="none" xmlns="http://www.w3.org/2000/svg">
  <rect width="40" height="40" rx="8" fill="#3B82F6"/>
  <path d="M12 8C12 6.68629 12.6863 6 13.5 6C14.3137 6 15 6.68629 15 8C15 9.31371 14.3137 10 13.5 10C12.6863 10 12 9.31371 12 8.5Z" fill="white"/>
  <path d="M10 12C10 10.8954 10.8954 10 10 10C9.10457 10 9 10.8954 9 12C9 13.1046 9.10457 14 10 14C10.8954 14 10 13.1046 10 12Z" fill="white"/>
  <path d="M20 14V16C20 17.1046 19.1046 18 18 18C16.8954 18 16 17.1046 16 16V14C16 12.6863 16.8954 12 17.5 12C18.1046 12 19 12.6863 19 14H20Z" fill="white"/>
</svg>
